<?xml version="1.0" standalone="no"?>
<!DOCTYPE svg PUBLIC "-//W3C//DTD SVG 20010904//EN"
 "http://www.w3.org/TR/2001/REC-SVG-20010904/DTD/svg10.dtd">
<svg version="1.0" xmlns="http://www.w3.org/2000/svg"
 width="439.000000pt" height="439.000000pt" viewBox="0 0 439.000000 439.000000"
 preserveAspectRatio="xMidYMid meet">
<metadata>
Created by potrace 1.11, written by Peter Selinger 2001-2013
</metadata>
<g transform="translate(0.000000,439.000000) scale(0.100000,-0.100000)"
fill="#000000" stroke="none">
<path d="M292 3920 c-67 -34 -111 -82 -134 -148 -9 -27 -13 -108 -13 -292 0
-291 9 -343 69 -404 69 -68 105 -78 322 -84 l194 -5 0 -233 0 -234 -41 0 c-42
0 -77 -14 -94 -37 -9 -12 -15 -9 -34 11 l-24 26 -187 0 -187 0 -60 -39 c-93
-60 -97 -74 -101 -328 -3 -191 -2 -216 16 -255 53 -119 108 -142 349 -142 155
-1 162 0 194 23 29 22 33 22 44 8 19 -26 61 -37 140 -37 123 0 141 15 155 129
9 65 9 65 6 -26 -1 -51 -6 -96 -10 -100 -4 -4 -41 -9 -82 -11 l-74 -4 0 -122
c0 -74 5 -136 13 -159 19 -53 69 -101 138 -132 l58 -26 343 3 c313 3 346 5
381 22 90 45 132 117 143 244 4 46 10 85 15 87 4 3 15 -16 25 -42 25 -70 279
-715 316 -803 17 -41 38 -95 47 -120 38 -102 97 -171 179 -212 l47 -23 530 0
530 0 54 30 c95 53 115 85 236 385 61 149 122 302 136 338 14 37 52 130 83
207 61 147 90 229 101 282 6 31 5 33 -22 34 -21 1 -16 3 17 10 25 5 68 14 97
20 69 14 130 59 154 115 18 41 20 63 17 277 l-3 234 -29 41 c-30 44 -102 86
-166 97 l-35 6 -3 152 c-1 84 -5 173 -8 198 -7 61 -56 133 -116 175 l-47 32
-208 6 c-114 4 -282 3 -373 -2 -165 -8 -165 -8 -210 -41 -24 -18 -58 -56 -75
-84 l-30 -52 -5 -205 c-4 -176 -7 -204 -20 -201 -8 3 -42 7 -75 9 -33 2 -65 8
-71 13 -7 6 -13 74 -16 187 -6 198 -12 223 -75 292 -59 66 -99 79 -274 90 -83
5 -153 11 -156 14 -3 2 0 28 6 56 14 65 15 562 1 612 -6 20 -30 57 -54 82 -81
83 -6 77 -1051 83 l-930 5 -63 -32z m1925 -164 l28 -24 3 -244 c3 -231 2 -246
-17 -269 l-20 -24 -33 33 -34 32 -191 0 c-106 0 -203 -4 -218 -10 -15 -6 -32
-24 -41 -45 -8 -19 -20 -35 -27 -35 -9 0 -11 -73 -9 -331 l3 -332 -47 7 c-26
3 -64 6 -85 6 l-39 0 0 348 c0 325 1 349 19 379 22 35 19 43 -16 43 l-23 0 0
-386 0 -385 -35 3 -36 3 -2 415 -2 415 -45 5 c-45 5 -45 5 -48 46 l-3 42 118
7 c65 4 214 5 331 3 192 -5 214 -4 219 11 3 9 12 23 20 32 9 11 11 27 6 53
l-8 36 -639 1 c-672 0 -663 1 -652 -43 6 -24 -12 -36 -59 -40 -32 -2 -40 -7
-40 -23 0 -20 8 -20 333 -23 l332 -2 0 -496 c0 -481 -1 -496 -18 -474 -14 18
-33 24 -83 29 l-64 6 -3 383 -2 382 -25 0 c-29 0 -29 2 -10 -43 12 -30 15 -97
15 -382 l0 -345 -32 0 -33 0 0 333 c0 300 -2 335 -18 365 -11 21 -28 34 -45
38 -15 3 -132 6 -260 7 -218 2 -235 3 -248 21 -11 16 -14 61 -14 207 l0 187
-35 31 c-39 34 -43 46 -17 60 11 7 325 10 919 11 l902 0 28 -24z m464 -843
c44 -26 50 -53 47 -233 l-3 -165 -54 -7 c-29 -5 -66 -17 -82 -29 l-28 -20 -3
148 c-3 145 -3 148 -25 151 -26 4 -28 -3 -8 -38 22 -39 21 -270 -2 -313 -11
-21 -18 -65 -21 -127 -8 -161 -25 -63 -31 185 l-6 220 -24 3 c-14 2 -44 -6
-68 -18 l-43 -21 0 -65 0 -64 -80 0 -80 0 0 88 c1 56 6 96 15 112 20 35 19 40
-10 40 l-25 0 0 -120 0 -120 -34 0 -35 0 -3 156 -3 155 -35 29 c-34 28 -34 29
-16 49 19 20 28 21 324 21 267 0 307 -2 333 -17z m1266 -7 l28 -24 3 -181 3
-181 -45 0 c-68 0 -125 -26 -173 -78 l-43 -46 0 141 0 141 -32 4 c-21 4 -46
-2 -71 -15 l-39 -20 4 -64 4 -64 -121 3 -120 3 -3 151 -3 151 -29 28 c-34 33
-37 50 -12 64 10 6 133 11 319 11 l302 0 28 -24z m259 -440 c67 -21 101 -49
114 -94 7 -23 10 -117 8 -255 -3 -216 -3 -219 -27 -238 -30 -24 -42 -16 -34
24 l6 32 -24 -22 c-35 -31 -105 -53 -173 -53 -77 0 -69 7 16 14 38 3 78 11 90
17 23 12 58 47 58 58 1 11 1 286 1 333 -1 64 -36 99 -118 116 -79 16 -115 15
-139 -3 -18 -15 -17 -15 16 -14 19 0 53 0 75 -1 l40 -2 -34 -10 c-19 -5 -52
-28 -73 -51 l-39 -42 3 -138 c3 -158 8 -167 85 -167 35 0 49 6 68 26 20 22 26
24 31 11 3 -8 4 -21 2 -29 -2 -7 2 -15 7 -17 6 -2 18 19 27 46 l16 48 1 -37
c2 -88 -40 -118 -168 -121 -49 -1 -87 -5 -84 -9 2 -5 13 -8 24 -8 17 0 18 -3
7 -20 -18 -28 -42 -25 -105 11 -44 25 -57 29 -64 18 -6 -10 -13 -2 -27 28 -15
35 -18 71 -20 225 -1 101 2 201 7 222 22 89 108 128 271 121 58 -2 128 -11
156 -19z m-2999 -3 c4 -10 7 -159 5 -331 -3 -343 -4 -346 -60 -305 -37 27 -65
33 -87 17 -27 -20 -32 -18 -44 17 -16 47 -14 118 4 125 24 9 19 71 -6 84 -24
13 -111 8 -151 -8 l-27 -11 6 -89 c6 -95 0 -142 -19 -142 -6 0 -26 15 -44 33
l-34 32 0 123 0 122 103 1 c159 2 184 16 30 18 l-133 1 0 120 c0 73 -4 120
-10 120 -6 0 -11 -92 -12 -252 l-2 -253 -6 265 c-3 146 -7 266 -8 268 -1 1
-13 7 -27 12 -14 5 -25 14 -25 20 0 15 39 21 115 18 l70 -3 3 -112 3 -113 73
0 74 0 6 73 c3 39 5 90 3 112 -2 37 0 40 28 45 17 3 60 7 97 8 56 3 68 0 75
-15z m573 2 c11 -7 13 -106 4 -142 -6 -20 -12 -23 -55 -21 -27 1 -52 -2 -56
-7 -5 -6 -6 -77 -3 -160 l5 -150 38 2 c64 4 77 -9 77 -77 0 -98 -15 -112 -63
-60 -35 37 -55 38 -63 5 -5 -22 -11 -25 -48 -24 -22 0 -81 6 -129 13 -72 10
-90 10 -99 -1 -17 -21 -35 2 -49 62 -16 70 -5 85 61 85 57 0 58 2 67 143 3 54
10 100 14 103 17 10 10 69 -9 80 -28 18 -82 27 -82 15 0 -6 -6 -11 -14 -11
-16 0 -49 99 -44 128 2 11 17 19 43 23 48 8 391 3 405 -6z m548 6 c15 -9 105
-238 127 -322 15 -58 19 -245 6 -304 -8 -40 -36 -43 -68 -8 -25 27 -26 34 -27
140 -1 61 -4 115 -8 119 -9 8 -10 -5 -8 -131 1 -84 -1 -93 -24 -118 -14 -15
-32 -27 -39 -27 -20 0 -28 77 -10 92 7 6 13 23 13 39 0 24 -5 30 -40 39 -40
11 -85 5 -96 -11 -3 -5 -18 -9 -35 -9 l-29 0 0 -75 c0 -92 -12 -102 -67 -56
-21 18 -43 36 -49 41 -14 11 -28 219 -19 286 11 82 45 258 55 281 6 15 20 23
42 25 68 8 264 7 276 -1z m690 -6 c13 -5 18 -136 5 -148 -8 -9 -73 54 -73 71
0 9 -27 12 -99 12 -55 0 -106 -3 -115 -6 -38 -15 -9 -24 77 -25 62 -1 82 -3
61 -8 -40 -10 -54 -19 -54 -36 0 -7 -13 -18 -30 -24 -20 -6 -30 -17 -30 -30 0
-27 22 -37 95 -45 178 -18 215 -53 215 -205 0 -85 -8 -118 -35 -145 -21 -20
-35 -12 -35 20 0 24 -1 24 -25 8 -34 -22 -44 -10 -16 20 21 22 23 32 19 97 -3
59 -8 75 -26 90 -22 17 -86 34 -164 43 -21 2 -42 7 -48 11 -5 3 -10 2 -10 -4
0 -11 18 -24 38 -27 26 -4 25 -14 0 -14 -14 0 -31 -7 -38 -15 -15 -18 -41 -12
-84 18 -21 15 -30 17 -35 8 -6 -8 -13 -4 -25 14 -14 21 -18 51 -19 135 -2 103
-1 110 23 135 49 53 80 60 256 57 87 -2 165 -5 172 -7z m612 -5 c11 -17 2
-140 -11 -154 -5 -6 -23 -6 -46 0 -34 8 -127 3 -190 -11 -23 -5 -32 -38 -14
-49 4 -3 50 -10 100 -16 97 -11 157 -35 182 -75 8 -12 15 -60 17 -120 4 -117
-11 -159 -68 -188 -30 -15 -53 -17 -155 -12 -66 3 -138 11 -160 18 -47 14
-125 82 -125 109 0 17 11 18 144 18 155 0 156 0 156 55 0 28 -19 40 -75 50
-22 4 -63 20 -91 36 -61 35 -78 75 -78 186 0 53 -4 73 -13 73 -24 0 -13 39 17
60 43 30 104 39 263 37 110 -2 140 -5 147 -17z m-3096 -16 c8 -29 -3 -134 -13
-134 -10 0 -57 53 -64 73 -5 14 -20 17 -91 17 -116 0 -182 -15 -203 -47 -9
-14 -20 -55 -24 -91 l-7 -67 2 80 c2 44 6 88 10 98 6 12 4 17 -7 17 -24 0 -31
20 -15 37 33 32 91 42 249 43 l157 0 6 -26z m2555 -161 c-1 -54 -3 -90 -6 -80
-2 9 -8 15 -12 12 -5 -2 -17 2 -27 10 -18 13 -18 15 9 42 21 22 27 39 27 71 0
23 2 42 5 42 3 0 4 -44 4 -97z m-2756 80 c-13 -2 -23 -8 -23 -12 0 -5 -21 -11
-46 -14 -54 -6 -64 -17 -64 -72 1 -37 2 -39 15 -21 8 11 15 24 15 30 0 15 32
46 48 46 12 0 12 -4 -2 -25 -13 -19 -16 -51 -16 -152 0 -70 5 -135 10 -143 7
-12 37 -16 135 -18 123 -4 125 -4 131 -28 6 -23 -3 -111 -13 -127 -5 -9 -58
45 -67 68 -5 13 -24 15 -108 14 -118 -1 -152 10 -168 54 -13 38 -13 317 0 352
13 33 62 54 125 53 28 0 40 -3 28 -5z m574 -30 c-3 -10 -5 -4 -5 12 0 17 2 24
5 18 2 -7 2 -21 0 -30z m943 -22 c0 -66 -16 -81 -83 -80 -50 1 -51 2 -15 8 50
10 66 26 79 77 6 24 13 44 15 44 2 0 4 -22 4 -49z m-1261 -213 c1 -94 -2 -100
-47 -77 -28 15 -58 19 -129 19 l-93 0 0 100 0 100 104 0 c88 0 107 3 127 19
l24 19 6 -56 c4 -31 7 -87 8 -124z m3469 38 c2 -99 1 -107 -15 -104 -16 3 -18
16 -21 97 -3 102 1 125 21 119 8 -3 13 -37 15 -112z m-2661 -58 c-2 -24 -4 -5
-4 42 0 47 2 66 4 43 2 -24 2 -62 0 -85z m-1260 -35 c-2 -16 -4 -3 -4 27 0 30
2 43 4 28 2 -16 2 -40 0 -55z m2403 10 c0 -44 -5 -41 -14 10 -5 27 -4 37 3 32
6 -3 11 -22 11 -42z m595 27 c3 -5 1 -10 -4 -10 -6 0 -11 5 -11 10 0 6 2 10 4
10 3 0 8 -4 11 -10z m-185 -63 c0 -44 -22 -92 -48 -105 -9 -5 -46 -10 -82 -11
-86 -3 -91 -11 -7 -11 36 0 68 -4 72 -9 3 -6 -25 -9 -67 -8 -69 2 -73 1 -76
-20 -4 -27 -21 -28 -77 -9 -38 14 -41 13 -57 -7 l-17 -22 -15 36 c-9 21 -17
56 -18 80 l-3 43 54 9 c32 5 87 5 139 -1 95 -11 108 -9 117 19 8 25 29 19 33
-9 6 -40 21 -22 28 34 7 62 24 56 24 -9z m-370 22 c0 -5 -4 -9 -10 -9 -5 0
-10 7 -10 16 0 8 5 12 10 9 6 -3 10 -10 10 -16z m555 -9 c3 -5 1 -10 -4 -10
-6 0 -11 5 -11 10 0 6 2 10 4 10 3 0 8 -4 11 -10z m-928 -177 c2 -59 17 -81
61 -88 67 -11 79 -21 97 -77 14 -43 192 -482 225 -553 5 -11 18 -40 29 -65 40
-88 80 -134 135 -155 35 -13 78 -16 242 -13 233 4 247 8 308 93 35 49 40 53
52 37 11 -16 13 -15 23 8 13 29 33 63 43 70 3 3 23 45 43 94 20 49 41 96 45
105 5 9 20 45 34 81 25 65 54 136 106 265 15 39 40 102 55 140 l27 71 41 -42
c40 -39 93 -64 142 -64 44 -1 46 -12 21 -86 -37 -109 -377 -957 -394 -981 -17
-27 -30 -29 -47 -7 -19 26 -77 30 -515 33 -325 2 -420 6 -441 16 -19 10 -35
38 -63 107 -21 51 -42 102 -47 113 -25 58 -274 678 -290 723 l-20 54 26 20
c22 17 25 27 25 84 0 57 2 65 18 62 12 -2 17 -14 19 -45z m893 -19 c0 -9 -18
-33 -39 -53 -21 -20 -46 -51 -55 -68 -20 -40 -29 -41 -50 -8 -9 14 -31 32 -49
39 l-32 14 40 1 c49 2 112 30 144 65 28 30 41 33 41 10z m-1256 -64 c-6 -6
-28 -13 -50 -16 l-39 -5 31 14 c18 8 35 20 39 27 5 8 10 9 18 1 8 -8 8 -14 1
-21z m-452 -21 c9 -5 31 -9 48 -9 28 0 30 -2 24 -27 -4 -16 -11 -36 -15 -45
-13 -25 -11 -30 14 -26 19 3 22 10 25 51 3 42 6 47 26 47 13 0 51 3 85 7 l63
6 -4 -111 c-2 -89 -6 -115 -20 -129 -17 -16 -20 -15 -56 20 l-38 37 -250 0
c-299 0 -287 -5 -282 111 2 56 7 74 18 76 28 5 43 -15 48 -66 4 -41 8 -51 23
-51 23 0 23 7 4 53 -8 20 -15 38 -15 40 0 3 46 7 102 9 59 3 104 10 106 16 3
11 65 5 94 -9z m1203 -68 c15 -39 30 -70 31 -68 2 2 -32 129 -36 132 0 0 41 0
92 0 l91 0 73 -219 c41 -121 79 -223 86 -228 7 -4 36 -8 65 -8 42 0 54 4 63
20 6 11 19 20 29 20 42 0 66 42 127 228 l59 182 143 0 c78 0 142 -2 142 -3 0
-31 -263 -659 -300 -717 -29 -45 -82 -81 -97 -66 -4 3 1 22 10 41 9 20 17 37
17 39 0 2 -71 5 -157 5 -87 1 -172 4 -189 7 -44 8 -66 42 -133 207 -32 78 -75
183 -95 232 -21 50 -50 121 -67 159 -39 91 -39 137 0 116 10 -5 30 -41 46 -79z
m997 64 c-2 -14 -6 -25 -8 -25 -2 0 -4 11 -4 25 0 14 4 25 9 25 4 0 6 -11 3
-25z m-749 -2 c-7 -2 -19 -2 -25 0 -7 3 -2 5 12 5 14 0 19 -2 13 -5z m-54
-781 c-1 -14 -35 0 -62 26 -24 23 -57 80 -57 100 0 3 27 -23 60 -57 32 -34 59
-65 59 -69z m456 -12 c-3 -5 -11 -10 -16 -10 -6 0 -7 5 -4 10 3 6 11 10 16 10
6 0 7 -4 4 -10z"/>
<path d="M3417 2753 c-10 -9 -9 -53 1 -53 8 0 32 43 32 55 0 7 -26 6 -33 -2z"/>
<path d="M3765 2743 c4 -10 13 -33 19 -50 16 -48 28 -40 24 15 -3 41 -6 47
-27 50 -20 3 -22 1 -16 -15z"/>
<path d="M3802 2610 c0 -14 2 -19 5 -12 2 6 2 18 0 25 -3 6 -5 1 -5 -13z"/>
<path d="M3801 2514 c0 -11 3 -14 6 -6 3 7 2 16 -1 19 -3 4 -6 -2 -5 -13z"/>
<path d="M3860 2299 c0 -5 5 -7 10 -4 6 3 10 8 10 11 0 2 -4 4 -10 4 -5 0 -10
-5 -10 -11z"/>
<path d="M3866 1965 c4 -8 8 -15 10 -15 2 0 4 7 4 15 0 8 -4 15 -10 15 -5 0
-7 -7 -4 -15z"/>
<path d="M3882 1929 c2 -7 10 -15 17 -17 8 -3 12 1 9 9 -2 7 -10 15 -17 17 -8
3 -12 -1 -9 -9z"/>
<path d="M1095 2151 c-3 -5 -1 -12 5 -16 5 -3 10 1 10 9 0 18 -6 21 -15 7z"/>
<path d="M1545 2390 c-82 -4 -105 -7 -62 -8 65 -2 67 -3 67 -28 0 -14 4 -23
10 -19 6 3 10 16 10 27 0 20 4 21 71 14 55 -5 70 -3 67 6 -6 16 -2 16 -163 8z"/>
<path d="M1550 2105 c0 -130 4 -205 10 -205 6 0 10 75 10 205 0 130 -4 205
-10 205 -6 0 -10 -75 -10 -205z"/>
<path d="M1670 1896 c0 -2 9 -6 20 -9 11 -3 20 -1 20 4 0 5 -9 9 -20 9 -11 0
-20 -2 -20 -4z"/>
<path d="M2100 2382 c0 -4 29 -6 64 -4 60 4 67 2 90 -23 14 -16 26 -24 26 -18
0 5 -9 19 -20 31 -18 19 -32 22 -90 22 -39 0 -70 -4 -70 -8z"/>
<path d="M2066 2345 c-9 -26 -7 -32 5 -12 6 10 9 21 6 23 -2 3 -7 -2 -11 -11z"/>
<path d="M2020 2228 c-30 -74 -34 -96 -38 -201 -3 -79 0 -123 7 -130 8 -8 11
9 12 64 2 165 6 195 33 267 38 102 27 101 -14 0z"/>
<path d="M2175 2296 c-26 -11 -34 -23 -48 -75 -9 -33 -17 -65 -17 -71 0 -6 28
-10 65 -10 l65 0 -6 40 c-5 31 -3 44 10 53 12 9 14 19 8 42 -10 35 -33 41 -77
21z"/>
<path d="M2334 2195 c3 -11 8 -35 11 -53 5 -22 10 -31 17 -24 6 6 3 25 -11 53
-11 24 -19 35 -17 24z"/>
<path d="M2652 2270 c-2 -63 6 -100 20 -100 6 0 7 7 2 18 -4 9 -11 44 -14 77
l-7 60 -1 -55z"/>
<path d="M3294 2374 c-19 -15 -19 -16 1 -8 11 4 72 11 135 14 l115 6 -116 2
c-92 2 -119 -1 -135 -14z"/>
<path d="M3256 2334 c-3 -9 -6 -47 -6 -84 0 -60 3 -71 22 -84 29 -21 36 -12
12 15 -15 17 -19 35 -18 95 1 41 0 74 -1 74 -2 0 -6 -7 -9 -16z"/>
<path d="M3428 2133 c7 -3 16 -2 19 1 4 3 -2 6 -13 5 -11 0 -14 -3 -6 -6z"/>
<path d="M3478 2123 c7 -3 16 -2 19 1 4 3 -2 6 -13 5 -11 0 -14 -3 -6 -6z"/>
<path d="M3550 2018 c0 -31 -3 -65 -6 -75 -6 -14 -4 -15 6 -6 17 16 25 96 11
119 -8 15 -10 8 -11 -38z"/>
<path d="M3490 1900 c0 -5 7 -7 15 -4 8 4 15 8 15 10 0 2 -7 4 -15 4 -8 0 -15
-4 -15 -10z"/>
<path d="M2513 889 c4 -14 13 -42 22 -62 14 -33 19 -37 52 -37 l36 0 -48 53
c-27 28 -53 57 -58 62 -6 6 -7 1 -4 -16z"/>
<path d="M3385 840 l-49 -50 35 0 c32 0 36 3 52 47 9 25 16 48 14 49 -2 2 -25
-19 -52 -46z"/>
<path d="M2822 1135 c9 -21 18 -25 55 -25 48 0 50 15 3 25 -16 4 -32 11 -35
16 -4 5 -13 9 -20 9 -12 0 -12 -5 -3 -25z"/>
<path d="M3093 1136 c-49 -18 -50 -26 -5 -26 23 0 42 2 42 4 0 2 3 11 6 20 7
18 2 18 -43 2z"/>
</g>
</svg>
